<?xml version="1.0" encoding="UTF-8" standalone="no"?>
<!-- Created with Inkscape (http://www.inkscape.org/) -->

<svg
   width="131.03644mm"
   height="170.4099mm"
   viewBox="0 0 131.03644 170.4099"
   version="1.1"
   id="svg1"
   xml:space="preserve"
   xmlns="http://www.w3.org/2000/svg"
   xmlns:svg="http://www.w3.org/2000/svg"><defs
     id="defs1" /><g
     id="layer1"
     transform="translate(6132.3327,-1131.3174)"><g
       id="g32"><g
         id="g46-8"
         style="fill:#ffffff;fill-opacity:0.992157"
         transform="matrix(1.6815412,0,0,1.6815412,1787.1416,-246.58937)"><circle
           style="fill:#ffffff;fill-opacity:0.992157;stroke:none;stroke-width:26.4583;stroke-linecap:square;stroke-linejoin:round;stroke-dasharray:none;stroke-dashoffset:0;stroke-opacity:1"
           id="path44-2"
           cx="-4670.689"
           cy="858.3941"
           r="38.963272" /><path
           style="fill:#ffffff;fill-opacity:0.992157;stroke:none;stroke-width:26.4583;stroke-linecap:square;stroke-linejoin:round;stroke-dasharray:none;stroke-dashoffset:0;stroke-opacity:1"
           id="path45-5"
           d="m -4597.1178,780.55192 c -4.4694,4.46943 -44.1515,4.46943 -48.6209,0 -4.4694,-4.46942 -4.4694,-44.15151 0,-48.62093 4.4694,-4.46943 44.1515,-4.46943 48.6209,0 4.4695,4.46942 4.4695,44.15151 0,48.62093 z"
           transform="matrix(0.75423752,1.0421587,-0.75423752,1.0421587,-614.64872,4898.2396)" /></g><g
         id="g46-8-6"
         style="fill:#dedacd;fill-opacity:1"
         transform="matrix(1.1988554,0,0,1.1988554,-467.33363,166.47224)"><circle
           style="fill:#dedacd;fill-opacity:1;stroke:none;stroke-width:26.4583;stroke-linecap:square;stroke-linejoin:round;stroke-dasharray:none;stroke-dashoffset:0;stroke-opacity:1"
           id="path44-2-4"
           cx="-4670.689"
           cy="858.3941"
           r="38.963272" /><path
           style="fill:#dedacd;fill-opacity:1;stroke:none;stroke-width:26.4583;stroke-linecap:square;stroke-linejoin:round;stroke-dasharray:none;stroke-dashoffset:0;stroke-opacity:1"
           id="path45-5-4"
           d="m -4597.1178,780.55192 c -4.4694,4.46943 -44.1515,4.46943 -48.6209,0 -4.4694,-4.46942 -4.4694,-44.15151 0,-48.62093 4.4694,-4.46943 44.1515,-4.46943 48.6209,0 4.4695,4.46942 4.4695,44.15151 0,48.62093 z"
           transform="matrix(0.75423752,1.0421587,-0.75423752,1.0421587,-614.64872,4898.2396)" /></g></g></g></svg>
